<mxfile host="Electron" modified="2023-06-27T05:50:29.523Z" agent="Mozilla/5.0 (Windows NT 10.0; Win64; x64) AppleWebKit/537.36 (KHTML, like Gecko) draw.io/21.5.0 Chrome/112.0.5615.204 Electron/24.5.1 Safari/537.36" etag="C4zqIkzgtMsMoAezsnSX" version="21.5.0" type="device">
  <diagram name="Page-1" id="Page-1">
    <mxGraphModel dx="1036" dy="614" grid="1" gridSize="10" guides="1" tooltips="1" connect="1" arrows="1" fold="1" page="1" pageScale="1" pageWidth="1654" pageHeight="1169" math="0" shadow="0">
      <root>
        <mxCell id="0" />
        <mxCell id="1" parent="0" />
        <UserObject label="&lt;div style=&quot;font-size: 1px&quot;&gt;&lt;/div&gt;" tags="Фон" id="2">
          <mxCell style="verticalAlign=middle;align=center;overflow=width;vsdxID=61;fillColor=none;gradientColor=none;shape=stencil(jY9LDoAgDERP061B6g383MNEFKKCQfzdXkg1oit3M+2bSQuYz7KeBHA2O2t6sanGScACOFdaCqucV4AlYN4aKzprFt2Qn+pABjWaNTTslGMhwdkRu4rAQekYTLL0L5uyd+3tL9iL5xz6JN59T/cjehvLEw==);strokeColor=#000000;points=[[0,1,0]];labelBackgroundColor=none;rounded=0;html=1;whiteSpace=wrap;" parent="1" vertex="1">
            <mxGeometry x="900.9999999999999" y="996.9999999999999" width="738.9999999999999" as="geometry" />
          </mxCell>
        </UserObject>
        <UserObject label="" tags="Фон" id="3">
          <mxCell style="vsdxID=62;fillColor=#FFFFFF;gradientColor=none;shape=stencil(UzV2Ls5ILEhVNTIoLinKz04tz0wpyVA1dlE1MsrMy0gtyiwBslSNXVWNndPyi1LTi/JL81Ig/IJEkEoQKze/DGRCBUSfoYEBSI+RQSUq3w2iOCczD49iAz1zEhTjVkqmQjS3AhkIX0ICCFkOPUSAQpDQNHYFAA==);strokeColor=#000000;points=[[0,1,0]];labelBackgroundColor=none;rounded=0;html=1;whiteSpace=wrap;" parent="1" vertex="1">
            <mxGeometry x="60" y="9" width="1579.9999999999998" height="1148" as="geometry" />
          </mxCell>
        </UserObject>
        <UserObject label="&lt;div style=&quot;font-size: 1px&quot;&gt;&lt;p style=&quot;text-align:center;margin-left:0;margin-right:0;margin-top:0px;margin-bottom:0px;text-indent:0;vertical-align:middle;direction:ltr;&quot;&gt;&lt;font style=&quot;font-size:16.93px;font-family:Times New Roman;color:#000000;direction:ltr;letter-spacing:0px;line-height:120%;opacity:1&quot;&gt;Демонстраційний плакат до дипломного проекту&lt;br/&gt;&lt;/font&gt;&lt;/p&gt;&lt;/div&gt;" tags="Фон" id="4">
          <mxCell style="verticalAlign=middle;align=center;overflow=width;vsdxID=71;fillColor=none;gradientColor=none;shape=stencil(nZBLDoAgDERP0z3SIyjew0SURgSD+Lu9kMZoXLhwN9O+tukAlrNpJg1SzDH4QW/URgNYgZTkjA4UkwJUgGXng+6DX1zLfmoymdXo17xh5zmRJ6Q42BWCfc2oJfdAr+Yv+AP9Cb7OJ3H/2JG1HNGz/84klThPVCc=);strokeColor=none;points=[];labelBackgroundColor=none;rounded=0;html=1;whiteSpace=wrap;" parent="1" vertex="1">
            <mxGeometry x="1041" y="996.9999999999999" width="487.99999999999994" height="28.299999999999997" as="geometry" />
          </mxCell>
        </UserObject>
        <UserObject label="&lt;div style=&quot;font-size: 1px&quot;&gt;&lt;p style=&quot;text-align:center;margin-left:0;margin-right:0;margin-top:0px;margin-bottom:0px;text-indent:0;vertical-align:middle;direction:ltr;&quot;&gt;&lt;font style=&quot;font-size:16.93px;font-family:Times New Roman;color:#ff0000;direction:ltr;letter-spacing:0px;line-height:20.249444444444446px;opacity:1&quot;&gt;Програмне забезпечення ведення реєстру паспортів підконтрольних об&lt;/font&gt;&lt;font style=&quot;font-size:16.93px;font-family:Times New Roman;color:#ff0000;direction:ltr;letter-spacing:0px;line-height:20.249444444444446px;opacity:1&quot;&gt;’&lt;/font&gt;&lt;font style=&quot;font-size:16.93px;font-family:Times New Roman;color:#ff0000;direction:ltr;letter-spacing:0px;line-height:20.249444444444446px;opacity:1&quot;&gt;єктів у складі ІАС ДКРС&lt;br&gt;&lt;/font&gt;&lt;/p&gt;&lt;/div&gt;" tags="Фон" id="5">
          <mxCell style="verticalAlign=middle;align=center;overflow=width;vsdxID=72;fillColor=none;gradientColor=none;shape=stencil(nZBLDoAgDERP0z3SIyjew0SURgSD+Lu9kMZoXLhwN9O+tukAlrNpJg1SzDH4QW/URgNYgZTkjA4UkwJUgGXng+6DX1zLfmoymdXo17xh5zmRJ6Q42BWCfc2oJfdAr+Yv+AP9Cb7OJ3H/2JG1HNGz/84klThPVCc=);strokeColor=none;points=[];labelBackgroundColor=none;rounded=0;html=1;whiteSpace=wrap;" parent="1" vertex="1">
            <mxGeometry x="899.9999999999999" y="1025" width="735.9999999999999" height="47.99999999999999" as="geometry" />
          </mxCell>
        </UserObject>
        <UserObject label="&lt;div style=&quot;font-size: 1px&quot;&gt;&lt;p style=&quot;text-align:left;margin-left:0;margin-right:0;margin-top:0px;margin-bottom:0px;text-indent:0;vertical-align:middle;direction:ltr;&quot;&gt;&lt;font style=&quot;font-size:16.93px;font-family:Times New Roman;color:#ff0000;direction:ltr;letter-spacing:0px;line-height:120%;opacity:1&quot;&gt;Виконала студентка гр. І&lt;/font&gt;&lt;font style=&quot;font-size:16.93px;font-family:Times New Roman;color:#ff0000;direction:ltr;letter-spacing:0px;line-height:120%;opacity:1&quot;&gt;П&lt;/font&gt;&lt;font style=&quot;font-size:16.93px;font-family:Times New Roman;color:#ff0000;direction:ltr;letter-spacing:0px;line-height:120%;opacity:1&quot;&gt;-&lt;/font&gt;&lt;font style=&quot;font-size:16.93px;font-family:Times New Roman;color:#ff0000;direction:ltr;letter-spacing:0px;line-height:120%;opacity:1&quot;&gt;0X&lt;/font&gt;&lt;font style=&quot;font-size:16.93px;font-family:Times New Roman;color:#ff0000;direction:ltr;letter-spacing:0px;line-height:120%;opacity:1&quot;&gt;    &lt;/font&gt;&lt;font style=&quot;font-size:16.93px;font-family:Times New Roman;color:#ff0000;direction:ltr;letter-spacing:0px;line-height:120%;opacity:1&quot;&gt;Ягодк&lt;/font&gt;&lt;font style=&quot;font-size:16.93px;font-family:Times New Roman;color:#ff0000;direction:ltr;letter-spacing:0px;line-height:120%;opacity:1&quot;&gt;і&lt;/font&gt;&lt;font style=&quot;font-size:16.93px;font-family:Times New Roman;color:#ff0000;direction:ltr;letter-spacing:0px;line-height:120%;opacity:1&quot;&gt;на О.В.          &lt;br&gt;&lt;/font&gt;&lt;/p&gt;&lt;/div&gt;" tags="Фон" id="6">
          <mxCell style="verticalAlign=middle;align=left;overflow=width;vsdxID=73;fillColor=none;gradientColor=none;shape=stencil(nZBLDoAgDERP0z3SIyjew0SURgSD+Lu9kMZoXLhwN9O+tukAlrNpJg1SzDH4QW/URgNYgZTkjA4UkwJUgGXng+6DX1zLfmoymdXo17xh5zmRJ6Q42BWCfc2oJfdAr+Yv+AP9Cb7OJ3H/2JG1HNGz/84klThPVCc=);strokeColor=none;points=[];labelBackgroundColor=none;rounded=0;html=1;whiteSpace=wrap;" parent="1" vertex="1">
            <mxGeometry x="959.9999999999999" y="1077" width="668" height="28.2" as="geometry" />
          </mxCell>
        </UserObject>
        <UserObject label="&lt;div style=&quot;font-size: 1px&quot;&gt;&lt;p style=&quot;text-align:left;margin-left:0;margin-right:0;margin-top:0px;margin-bottom:0px;text-indent:0;vertical-align:middle;direction:ltr;&quot;&gt;&lt;font style=&quot;font-size:16.93px;font-family:Times New Roman;color:#ff0000;direction:ltr;letter-spacing:0px;line-height:120%;opacity:1&quot;&gt;Керівник &lt;/font&gt;&lt;font style=&quot;font-size:16.93px;font-family:Times New Roman;color:#ff0000;direction:ltr;letter-spacing:0px;line-height:120%;opacity:1&quot;&gt;  &lt;/font&gt;&lt;font style=&quot;font-size:16.93px;font-family:Times New Roman;color:#ff0000;direction:ltr;letter-spacing:0px;line-height:120%;opacity:1&quot;&gt;  &lt;/font&gt;&lt;font style=&quot;font-size:16.93px;font-family:Times New Roman;color:#ff0000;direction:ltr;letter-spacing:0px;line-height:120%;opacity:1&quot;&gt;    &lt;/font&gt;&lt;font style=&quot;font-size:16.93px;font-family:Times New Roman;color:#ff0000;direction:ltr;letter-spacing:0px;line-height:120%;opacity:1&quot;&gt;Керівник ДП&lt;br/&gt;&lt;/font&gt;&lt;/p&gt;&lt;/div&gt;" tags="Фон" id="7">
          <mxCell style="verticalAlign=middle;align=left;overflow=width;vsdxID=74;fillColor=none;gradientColor=none;shape=stencil(nZBLDoAgDERP0z3SIyjew0SURgSD+Lu9kMZoXLhwN9O+tukAlrNpJg1SzDH4QW/URgNYgZTkjA4UkwJUgGXng+6DX1zLfmoymdXo17xh5zmRJ6Q42BWCfc2oJfdAr+Yv+AP9Cb7OJ3H/2JG1HNGz/84klThPVCc=);strokeColor=none;points=[];labelBackgroundColor=none;rounded=0;html=1;whiteSpace=wrap;" parent="1" vertex="1">
            <mxGeometry x="959.9999999999999" y="1117" width="640" height="28.2" as="geometry" />
          </mxCell>
        </UserObject>
        <UserObject label="&lt;div style=&quot;font-size: 1px&quot;&gt;&lt;font style=&quot;font-size:42.33px;font-family:Arial;color:#000000;direction:ltr;letter-spacing:0px;line-height:120%;opacity:1&quot;&gt;НАЗВА ПЛАКАТУ&lt;br/&gt;&lt;/font&gt;&lt;/div&gt;" tags="Фон" id="8">
          <mxCell style="verticalAlign=middle;align=center;overflow=width;vsdxID=75;fillColor=none;gradientColor=none;shape=stencil(nZBLDoAgDERP0z3SIyjew0SURgSD+Lu9kMZoXLhwN9O+tukAlrNpJg1SzDH4QW/URgNYgZTkjA4UkwJUgGXng+6DX1zLfmoymdXo17xh5zmRJ6Q42BWCfc2oJfdAr+Yv+AP9Cb7OJ3H/2JG1HNGz/84klThPVCc=);strokeColor=none;points=[];labelBackgroundColor=none;rounded=0;html=1;whiteSpace=wrap;" parent="1" vertex="1">
            <mxGeometry x="459.99999999999994" y="57" width="879.9999999999999" height="140" as="geometry" />
          </mxCell>
        </UserObject>
        <mxCell id="9" parent="1" vertex="1">
          <mxGeometry x="900.9999999999999" y="996.9999999999999" as="geometry" />
        </mxCell>
        <mxCell id="10" parent="1" vertex="1">
          <mxGeometry x="900.9999999999999" y="1157" as="geometry" />
        </mxCell>
        <UserObject label="" tags="Фон" id="11">
          <mxCell style="vsdxID=64;edgeStyle=none;startArrow=none;endArrow=none;startSize=5;endSize=5;strokeColor=#000000;spacingTop=0;spacingBottom=0;spacingLeft=0;spacingRight=0;verticalAlign=middle;html=1;labelBackgroundColor=none;rounded=0;" parent="1" target="10" edge="1">
            <mxGeometry relative="1" as="geometry">
              <Array as="points">
                <mxPoint x="900.9999999999999" y="1156.9579999999999" />
              </Array>
              <mxPoint x="901" y="989" as="sourcePoint" />
            </mxGeometry>
          </mxCell>
        </UserObject>
        <mxCell id="12" parent="1" vertex="1">
          <mxGeometry x="1639.9999999999998" y="1157" as="geometry" />
        </mxCell>
        <UserObject label="" tags="Фон" id="13">
          <mxCell style="vsdxID=63;edgeStyle=none;startArrow=none;endArrow=none;startSize=5;endSize=5;strokeColor=#000000;spacingTop=0;spacingBottom=0;spacingLeft=0;spacingRight=0;verticalAlign=middle;html=1;labelBackgroundColor=none;rounded=0;exitX=0;exitY=1;exitDx=0;exitDy=0;exitPerimeter=0;" parent="1" source="3" target="12" edge="1">
            <mxGeometry relative="1" as="geometry">
              <mxPoint as="offset" />
              <Array as="points" />
            </mxGeometry>
          </mxCell>
        </UserObject>
        <UserObject label="" tags="Network" id="14">
          <mxCell parent="1" vertex="1" visible="0">
            <mxGeometry as="geometry" />
          </mxCell>
        </UserObject>
        <UserObject label="" tags="Фон" id="WpqqcUP17oYkAYDQ3NXh-14">
          <mxCell style="vsdxID=64;edgeStyle=none;startArrow=none;endArrow=none;startSize=5;endSize=5;strokeColor=#000000;spacingTop=0;spacingBottom=0;spacingLeft=0;spacingRight=0;verticalAlign=middle;html=1;labelBackgroundColor=none;rounded=0;entryX=1.001;entryY=0.853;entryDx=0;entryDy=0;entryPerimeter=0;" parent="1" target="3" edge="1">
            <mxGeometry relative="1" as="geometry">
              <Array as="points">
                <mxPoint x="1490" y="989" />
              </Array>
              <mxPoint x="900" y="988" as="sourcePoint" />
              <mxPoint x="911" y="1167" as="targetPoint" />
            </mxGeometry>
          </mxCell>
        </UserObject>
      </root>
    </mxGraphModel>
  </diagram>
</mxfile>
